# xmcd
#
# Track frame offsets: 
#        150
#        21534
#        49747
#        91965
#        130621
#        161801
#        189217
#        216054
#        238673
#
# Disc length: 3443 seconds
#
# Revision: 1
# Processed by: cddbd v1.5.2PL0 Copyright (c) Steve Scherf et al.
# Submitted via: ExactAudioCopy v1.0b3
#
DISCID=740d7109
DTITLE=Peace Orchestra - Peace Orchestra
DYEAR=1999
DGENRE=
TTITLE0=The Man Part One
TTITLE1=Meister Petz
TTITLE2=Double Drums
TTITLE3=Domination
TTITLE4=Marakesh
TTITLE5=Henry
TTITLE6=Who Am I
TTITLE7=Shining
TTITLE8=The Man Part Two
EXTD=
EXTT0=
EXTT1=
EXTT2=
EXTT3=
EXTT4=
EXTT5=
EXTT6=
EXTT7=
EXTT8=
PLAYORDER=
